<svg xmlns="http://www.w3.org/2000/svg" width="1920" height="300"><path d="M329,435L-63,438L647,453Z" fill="#977aba" stroke="#977aba" stroke-width="1.51"/><path d="M847,464L647,453L884,469Z" fill="#7d5faa" stroke="#7d5faa" stroke-width="1.51"/><path d="M647,453L-63,438L884,469Z" fill="#8f71b4" stroke="#8f71b4" stroke-width="1.51"/><path d="M239,-173L656,-165L1079,-163Z" fill="#dcdbec" stroke="#dcdbec" stroke-width="1.51"/><path d="M656,-165L908,-150L1079,-163Z" fill="#cfcde4" stroke="#cfcde4" stroke-width="1.51"/><path d="M239,-173L1079,-163L1505,-160Z" fill="#ccc9e2" stroke="#ccc9e2" stroke-width="1.51"/><path d="M1079,-163L1311,-158L1505,-160Z" fill="#bbb4d8" stroke="#bbb4d8" stroke-width="1.51"/><path d="M1505,-160L1671,-140L1752,-152Z" fill="#ae98ca" stroke="#ae98ca" stroke-width="1.51"/><path d="M1581,444L1408,458L1800,441Z" fill="#573091" stroke="#573091" stroke-width="1.51"/><path d="M1685,435L1581,444L1800,441Z" fill="#542a8f" stroke="#542a8f" stroke-width="1.51"/><path d="M1752,-152L1876,-115L1989,-124Z" fill="#a487c1" stroke="#a487c1" stroke-width="1.51"/><path d="M1752,-152L1989,-124L2018,-130Z" fill="#a384c0" stroke="#a384c0" stroke-width="1.51"/><path d="M1963,87L2055,93L2063,-45Z" fill="#886ab1" stroke="#886ab1" stroke-width="1.51"/><path d="M2055,93L2021,121L2069,212Z" fill="#7557a5" stroke="#7557a5" stroke-width="1.51"/><path d="M2063,-45L2055,93L2069,212Z" fill="#7f61ab" stroke="#7f61ab" stroke-width="1.51"/><path d="M1953,422L1800,441L2087,424Z" fill="#4c1a88" stroke="#4c1a88" stroke-width="1.51"/><path d="M2044,304L1953,422L2087,424Z" fill="#4e208a" stroke="#4e208a" stroke-width="1.51"/><path d="M2069,212L2044,304L2087,424Z" fill="#583191" stroke="#583191" stroke-width="1.51"/><path d="M2063,-45L2069,212L2087,424Z" fill="#6a4c9f" stroke="#6a4c9f" stroke-width="1.51"/><path d="M1951,314L1953,422L2044,304Z" fill="#552c90" stroke="#552c90" stroke-width="1.51"/><path d="M2018,-130L1989,-124L2063,-45Z" fill="#9d7dbb" stroke="#9d7dbb" stroke-width="1.51"/><path d="M1941,-47L1963,87L2063,-45Z" fill="#9173b6" stroke="#9173b6" stroke-width="1.51"/><path d="M2021,121L1925,160L2069,212Z" fill="#7255a4" stroke="#7255a4" stroke-width="1.51"/><path d="M1925,160L1987,281L2069,212Z" fill="#694da0" stroke="#694da0" stroke-width="1.51"/><path d="M1987,281L2044,304L2069,212Z" fill="#604099" stroke="#604099" stroke-width="1.51"/><path d="M1989,-124L1941,-47L2063,-45Z" fill="#9a7bba" stroke="#9a7bba" stroke-width="1.51"/><path d="M1963,87L2021,121L2055,93Z" fill="#7e61ab" stroke="#7e61ab" stroke-width="1.51"/><path d="M1987,281L1951,314L2044,304Z" fill="#5c3996" stroke="#5c3996" stroke-width="1.51"/><path d="M1963,87L1925,160L2021,121Z" fill="#7b5eaa" stroke="#7b5eaa" stroke-width="1.51"/><path d="M1941,-47L1860,16L1963,87Z" fill="#8f74b6" stroke="#8f74b6" stroke-width="1.51"/><path d="M1874,260L1951,314L1987,281Z" fill="#603f99" stroke="#603f99" stroke-width="1.51"/><path d="M1925,160L1874,260L1987,281Z" fill="#684da1" stroke="#684da1" stroke-width="1.51"/><path d="M1876,-115L1941,-47L1989,-124Z" fill="#9f80be" stroke="#9f80be" stroke-width="1.51"/><path d="M1869,-24L1860,16L1941,-47Z" fill="#977bba" stroke="#977bba" stroke-width="1.51"/><path d="M1886,301L1849,399L1951,314Z" fill="#5a3394" stroke="#5a3394" stroke-width="1.51"/><path d="M1874,260L1886,301L1951,314Z" fill="#603f99" stroke="#603f99" stroke-width="1.51"/><path d="M1951,314L1849,399L1953,422Z" fill="#54278e" stroke="#54278e" stroke-width="1.51"/><path d="M1849,399L1800,441L1953,422Z" fill="#50208b" stroke="#50208b" stroke-width="1.51"/><path d="M1846,134L1925,160L1963,87Z" fill="#7c61ac" stroke="#7c61ac" stroke-width="1.51"/><path d="M1860,16L1846,134L1963,87Z" fill="#866bb1" stroke="#866bb1" stroke-width="1.51"/><path d="M1876,-115L1869,-24L1941,-47Z" fill="#9d7fbd" stroke="#9d7fbd" stroke-width="1.51"/><path d="M1846,134L1874,260L1925,160Z" fill="#7258a7" stroke="#7258a7" stroke-width="1.51"/><path d="M1795,85L1846,134L1860,16Z" fill="#886eb4" stroke="#886eb4" stroke-width="1.51"/><path d="M1846,134L1776,169L1874,260Z" fill="#745aa8" stroke="#745aa8" stroke-width="1.51"/><path d="M1874,260L1804,373L1886,301Z" fill="#5f3c98" stroke="#5f3c98" stroke-width="1.51"/><path d="M1804,373L1849,399L1886,301Z" fill="#593193" stroke="#593193" stroke-width="1.51"/><path d="M1752,-152L1730,-12L1869,-24Z" fill="#a086c1" stroke="#a086c1" stroke-width="1.51"/><path d="M1750,247L1804,373L1874,260Z" fill="#63439c" stroke="#63439c" stroke-width="1.51"/><path d="M1776,169L1750,247L1874,260Z" fill="#6d55a6" stroke="#6d55a6" stroke-width="1.51"/><path d="M1752,-152L1869,-24L1876,-115Z" fill="#a386c2" stroke="#a386c2" stroke-width="1.51"/><path d="M1730,-12L1860,16L1869,-24Z" fill="#987dbc" stroke="#987dbc" stroke-width="1.51"/><path d="M1730,-12L1795,85L1860,16Z" fill="#9278b9" stroke="#9278b9" stroke-width="1.51"/><path d="M1804,373L1800,441L1849,399Z" fill="#54268e" stroke="#54268e" stroke-width="1.51"/><path d="M1795,85L1776,169L1846,134Z" fill="#7f66af" stroke="#7f66af" stroke-width="1.51"/><path d="M1505,-160L1575,-133L1671,-140Z" fill="#af9ccc" stroke="#af9ccc" stroke-width="1.51"/><path d="M1750,247L1649,302L1804,373Z" fill="#64459d" stroke="#64459d" stroke-width="1.51"/><path d="M1649,302L1685,435L1804,373Z" fill="#5c3796" stroke="#5c3796" stroke-width="1.51"/><path d="M1685,435L1800,441L1804,373Z" fill="#54288f" stroke="#54288f" stroke-width="1.51"/><path d="M1730,-12L1670,60L1795,85Z" fill="#917bbb" stroke="#917bbb" stroke-width="1.51"/><path d="M1665,138L1776,169L1795,85Z" fill="#816ab1" stroke="#816ab1" stroke-width="1.51"/><path d="M1670,60L1665,138L1795,85Z" fill="#8873b6" stroke="#8873b6" stroke-width="1.51"/><path d="M1671,-140L1654,-35L1730,-12Z" fill="#a38dc4" stroke="#a38dc4" stroke-width="1.51"/><path d="M1671,-140L1730,-12L1752,-152Z" fill="#a78ec6" stroke="#a78ec6" stroke-width="1.51"/><path d="M1691,212L1750,247L1776,169Z" fill="#735ca9" stroke="#735ca9" stroke-width="1.51"/><path d="M1665,138L1691,212L1776,169Z" fill="#7a64ad" stroke="#7a64ad" stroke-width="1.51"/><path d="M1691,212L1649,302L1750,247Z" fill="#6d56a5" stroke="#6d56a5" stroke-width="1.51"/><path d="M1654,-35L1670,60L1730,-12Z" fill="#9a85c0" stroke="#9a85c0" stroke-width="1.51"/><path d="M239,-173L554,-154L656,-165Z" fill="#e4e4f0" stroke="#e4e4f0" stroke-width="1.51"/><path d="M1491,432L1408,458L1581,444Z" fill="#5c3895" stroke="#5c3895" stroke-width="1.51"/><path d="M1654,-35L1605,-22L1670,60Z" fill="#9c88c2" stroke="#9c88c2" stroke-width="1.51"/><path d="M1605,-22L1589,30L1670,60Z" fill="#9986c1" stroke="#9986c1" stroke-width="1.51"/><path d="M1649,302L1561,341L1685,435Z" fill="#61409b" stroke="#61409b" stroke-width="1.51"/><path d="M1561,341L1581,444L1685,435Z" fill="#5b3695" stroke="#5b3695" stroke-width="1.51"/><path d="M1575,283L1649,302L1691,212Z" fill="#6d57a6" stroke="#6d57a6" stroke-width="1.51"/><path d="M1665,138L1549,144L1691,212Z" fill="#7e6bb1" stroke="#7e6bb1" stroke-width="1.51"/><path d="M1549,144L1575,283L1691,212Z" fill="#7765ae" stroke="#7765ae" stroke-width="1.51"/><path d="M1575,-133L1654,-35L1671,-140Z" fill="#aa95c9" stroke="#aa95c9" stroke-width="1.51"/><path d="M1575,-133L1605,-22L1654,-35Z" fill="#a692c7" stroke="#a692c7" stroke-width="1.51"/><path d="M1589,30L1549,144L1665,138Z" fill="#8b79b9" stroke="#8b79b9" stroke-width="1.51"/><path d="M1589,30L1665,138L1670,60Z" fill="#8f7cbb" stroke="#8f7cbb" stroke-width="1.51"/><path d="M1575,283L1561,341L1649,302Z" fill="#694fa1" stroke="#694fa1" stroke-width="1.51"/><path d="M1011,437L884,469L1255,461Z" fill="#7053a3" stroke="#7053a3" stroke-width="1.51"/><path d="M1549,144L1462,253L1575,283Z" fill="#7668af" stroke="#7668af" stroke-width="1.51"/><path d="M1455,-31L1589,30L1605,-22Z" fill="#a190c6" stroke="#a190c6" stroke-width="1.51"/><path d="M1575,-133L1455,-31L1605,-22Z" fill="#a897c9" stroke="#a897c9" stroke-width="1.51"/><path d="M1463,84L1476,123L1549,144Z" fill="#8c7ebb" stroke="#8c7ebb" stroke-width="1.51"/><path d="M1505,-160L1455,-31L1575,-133Z" fill="#ae9ecd" stroke="#ae9ecd" stroke-width="1.51"/><path d="M1561,341L1491,432L1581,444Z" fill="#5e3b98" stroke="#5e3b98" stroke-width="1.51"/><path d="M1463,84L1549,144L1589,30Z" fill="#9081bd" stroke="#9081bd" stroke-width="1.51"/><path d="M1455,-31L1463,84L1589,30Z" fill="#9c8ec4" stroke="#9c8ec4" stroke-width="1.51"/><path d="M1462,253L1561,341L1575,283Z" fill="#6e58a6" stroke="#6e58a6" stroke-width="1.51"/><path d="M1476,123L1462,253L1549,144Z" fill="#8274b5" stroke="#8274b5" stroke-width="1.51"/><path d="M1452,361L1491,432L1561,341Z" fill="#63449d" stroke="#63449d" stroke-width="1.51"/><path d="M1462,253L1452,361L1561,341Z" fill="#6b54a4" stroke="#6b54a4" stroke-width="1.51"/><path d="M1417,-101L1455,-31L1505,-160Z" fill="#afa2cf" stroke="#afa2cf" stroke-width="1.51"/><path d="M1311,-158L1417,-101L1505,-160Z" fill="#b5a9d3" stroke="#b5a9d3" stroke-width="1.51"/><path d="M1393,268L1452,361L1462,253Z" fill="#715eaa" stroke="#715eaa" stroke-width="1.51"/><path d="M1455,-31L1374,23L1463,84Z" fill="#9f94c7" stroke="#9f94c7" stroke-width="1.51"/><path d="M1353,159L1462,253L1476,123Z" fill="#8378b7" stroke="#8378b7" stroke-width="1.51"/><path d="M1452,361L1408,458L1491,432Z" fill="#61409a" stroke="#61409a" stroke-width="1.51"/><path d="M1079,-163L1217,-136L1311,-158Z" fill="#bebadb" stroke="#bebadb" stroke-width="1.51"/><path d="M1353,159L1393,268L1462,253Z" fill="#7b72b4" stroke="#7b72b4" stroke-width="1.51"/><path d="M1463,84L1353,159L1476,123Z" fill="#8d82bd" stroke="#8d82bd" stroke-width="1.51"/><path d="M1351,365L1408,458L1452,361Z" fill="#65489e" stroke="#65489e" stroke-width="1.51"/><path d="M1374,23L1353,159L1463,84Z" fill="#958cc3" stroke="#958cc3" stroke-width="1.51"/><path d="M1393,268L1351,365L1452,361Z" fill="#6d58a6" stroke="#6d58a6" stroke-width="1.51"/><path d="M1417,-101L1361,-68L1455,-31Z" fill="#aea2cf" stroke="#aea2cf" stroke-width="1.51"/><path d="M1361,-68L1374,23L1455,-31Z" fill="#a99fcd" stroke="#a99fcd" stroke-width="1.51"/><path d="M1320,151L1353,159L1374,23Z" fill="#928bc2" stroke="#928bc2" stroke-width="1.51"/><path d="M1353,159L1304,241L1393,268Z" fill="#7e77b7" stroke="#7e77b7" stroke-width="1.51"/><path d="M1311,-158L1361,-68L1417,-101Z" fill="#b4abd3" stroke="#b4abd3" stroke-width="1.51"/><path d="M1280,52L1320,151L1374,23Z" fill="#9a94c7" stroke="#9a94c7" stroke-width="1.51"/><path d="M1351,365L1255,461L1408,458Z" fill="#64479d" stroke="#64479d" stroke-width="1.51"/><path d="M1361,-68L1309,-42L1374,23Z" fill="#aba3d0" stroke="#aba3d0" stroke-width="1.51"/><path d="M1283,330L1351,365L1393,268Z" fill="#715faa" stroke="#715faa" stroke-width="1.51"/><path d="M1304,241L1283,330L1393,268Z" fill="#776ab0" stroke="#776ab0" stroke-width="1.51"/><path d="M443,429L329,435L647,453Z" fill="#9073b6" stroke="#9073b6" stroke-width="1.51"/><path d="M1309,-42L1280,52L1374,23Z" fill="#a59fcd" stroke="#a59fcd" stroke-width="1.51"/><path d="M1089,417L1011,437L1255,461Z" fill="#6e53a3" stroke="#6e53a3" stroke-width="1.51"/><path d="M1235,427L1255,461L1351,365Z" fill="#684da1" stroke="#684da1" stroke-width="1.51"/><path d="M1320,151L1304,241L1353,159Z" fill="#867fbb" stroke="#867fbb" stroke-width="1.51"/><path d="M1311,-158L1309,-42L1361,-68Z" fill="#b3acd4" stroke="#b3acd4" stroke-width="1.51"/><path d="M1283,330L1235,427L1351,365Z" fill="#6d55a6" stroke="#6d55a6" stroke-width="1.51"/><path d="M1228,367L1235,427L1283,330Z" fill="#6e58a7" stroke="#6e58a7" stroke-width="1.51"/><path d="M1172,131L1159,215L1304,241Z" fill="#8985be" stroke="#8985be" stroke-width="1.51"/><path d="M1217,-136L1309,-42L1311,-158Z" fill="#b8b2d7" stroke="#b8b2d7" stroke-width="1.51"/><path d="M1172,131L1304,241L1320,151Z" fill="#8a85be" stroke="#8a85be" stroke-width="1.51"/><path d="M1280,52L1172,131L1320,151Z" fill="#9692c5" stroke="#9692c5" stroke-width="1.51"/><path d="M1217,-136L1165,-56L1309,-42Z" fill="#b6b2d7" stroke="#b6b2d7" stroke-width="1.51"/><path d="M1180,38L1280,52L1309,-42Z" fill="#a7a4cf" stroke="#a7a4cf" stroke-width="1.51"/><path d="M1165,-56L1180,38L1309,-42Z" fill="#afacd3" stroke="#afacd3" stroke-width="1.51"/><path d="M1159,215L1283,330L1304,241Z" fill="#7d75b6" stroke="#7d75b6" stroke-width="1.51"/><path d="M1159,215L1131,326L1228,367Z" fill="#7b6eb2" stroke="#7b6eb2" stroke-width="1.51"/><path d="M1180,38L1172,131L1280,52Z" fill="#9f9dcb" stroke="#9f9dcb" stroke-width="1.51"/><path d="M1159,215L1228,367L1283,330Z" fill="#786bb0" stroke="#786bb0" stroke-width="1.51"/><path d="M1235,427L1089,417L1255,461Z" fill="#6a4fa2" stroke="#6a4fa2" stroke-width="1.51"/><path d="M1228,367L1089,417L1235,427Z" fill="#6f55a6" stroke="#6f55a6" stroke-width="1.51"/><path d="M1131,326L1089,417L1228,367Z" fill="#745fab" stroke="#745fab" stroke-width="1.51"/><path d="M1079,-163L1165,-56L1217,-136Z" fill="#bebada" stroke="#bebada" stroke-width="1.51"/><path d="M1089,212L1131,326L1159,215Z" fill="#847ebb" stroke="#847ebb" stroke-width="1.51"/><path d="M1125,180L1159,215L1172,131Z" fill="#908bc2" stroke="#908bc2" stroke-width="1.51"/><path d="M1165,-56L1118,-8L1180,38Z" fill="#b1aed4" stroke="#b1aed4" stroke-width="1.51"/><path d="M1096,56L1172,131L1180,38Z" fill="#a2a0cd" stroke="#a2a0cd" stroke-width="1.51"/><path d="M1118,-8L1096,56L1180,38Z" fill="#aba8d2" stroke="#aba8d2" stroke-width="1.51"/><path d="M1096,56L1125,180L1172,131Z" fill="#9a97c8" stroke="#9a97c8" stroke-width="1.51"/><path d="M1079,-163L1118,-8L1165,-56Z" fill="#bbb8d9" stroke="#bbb8d9" stroke-width="1.51"/><path d="M1125,180L1089,212L1159,215Z" fill="#8c88bf" stroke="#8c88bf" stroke-width="1.51"/><path d="M736,446L647,453L847,464Z" fill="#8164ad" stroke="#8164ad" stroke-width="1.51"/><path d="M1079,-163L998,-128L1118,-8Z" fill="#c1bddc" stroke="#c1bddc" stroke-width="1.51"/><path d="M998,-128L994,-21L1118,-8Z" fill="#bcb9d9" stroke="#bcb9d9" stroke-width="1.51"/><path d="M1096,56L994,141L1125,180Z" fill="#9d99c9" stroke="#9d99c9" stroke-width="1.51"/><path d="M994,141L1089,212L1125,180Z" fill="#948fc3" stroke="#948fc3" stroke-width="1.51"/><path d="M1089,212L1033,352L1131,326Z" fill="#8074b5" stroke="#8074b5" stroke-width="1.51"/><path d="M1033,352L1089,417L1131,326Z" fill="#7863ad" stroke="#7863ad" stroke-width="1.51"/><path d="M908,-150L998,-128L1079,-163Z" fill="#c8c4e0" stroke="#c8c4e0" stroke-width="1.51"/><path d="M984,231L1033,352L1089,212Z" fill="#877fbb" stroke="#877fbb" stroke-width="1.51"/><path d="M1015,37L1096,56L1118,-8Z" fill="#aeacd2" stroke="#aeacd2" stroke-width="1.51"/><path d="M994,-21L1015,37L1118,-8Z" fill="#b4b2d6" stroke="#b4b2d6" stroke-width="1.51"/><path d="M1015,37L994,141L1096,56Z" fill="#a7a5ce" stroke="#a7a5ce" stroke-width="1.51"/><path d="M1033,352L1011,437L1089,417Z" fill="#765ca9" stroke="#765ca9" stroke-width="1.51"/><path d="M994,141L984,231L1089,212Z" fill="#938fc3" stroke="#938fc3" stroke-width="1.51"/><path d="M119,415L-63,438L329,435Z" fill="#a081be" stroke="#a081be" stroke-width="1.51"/><path d="M950,24L994,141L1015,37Z" fill="#acaad1" stroke="#acaad1" stroke-width="1.51"/><path d="M926,334L1011,437L1033,352Z" fill="#7c65ae" stroke="#7c65ae" stroke-width="1.51"/><path d="M984,231L926,334L1033,352Z" fill="#8577b7" stroke="#8577b7" stroke-width="1.51"/><path d="M918,241L926,334L984,231Z" fill="#8c83bd" stroke="#8c83bd" stroke-width="1.51"/><path d="M926,-45L994,-21L998,-128Z" fill="#c1bedc" stroke="#c1bedc" stroke-width="1.51"/><path d="M926,334L884,469L1011,437Z" fill="#7b5fab" stroke="#7b5fab" stroke-width="1.51"/><path d="M994,-21L950,24L1015,37Z" fill="#b5b3d6" stroke="#b5b3d6" stroke-width="1.51"/><path d="M899,164L984,231L994,141Z" fill="#9995c6" stroke="#9995c6" stroke-width="1.51"/><path d="M899,164L918,241L984,231Z" fill="#9590c4" stroke="#9590c4" stroke-width="1.51"/><path d="M950,24L899,164L994,141Z" fill="#a6a3cd" stroke="#a6a3cd" stroke-width="1.51"/><path d="M908,-150L926,-45L998,-128Z" fill="#c8c4df" stroke="#c8c4df" stroke-width="1.51"/><path d="M926,-45L950,24L994,-21Z" fill="#bbb9d9" stroke="#bbb9d9" stroke-width="1.51"/><path d="M656,-165L809,-107L908,-150Z" fill="#d2d1e6" stroke="#d2d1e6" stroke-width="1.51"/><path d="M847,464L884,469L926,334Z" fill="#7c61ac" stroke="#7c61ac" stroke-width="1.51"/><path d="M926,-45L837,53L950,24Z" fill="#bab9d9" stroke="#bab9d9" stroke-width="1.51"/><path d="M837,53L899,164L950,24Z" fill="#aeacd3" stroke="#aeacd3" stroke-width="1.51"/><path d="M899,164L843,252L918,241Z" fill="#9692c5" stroke="#9692c5" stroke-width="1.51"/><path d="M784,306L847,464L926,334Z" fill="#846fb4" stroke="#846fb4" stroke-width="1.51"/><path d="M843,252L784,306L926,334Z" fill="#8c80bc" stroke="#8c80bc" stroke-width="1.51"/><path d="M918,241L843,252L926,334Z" fill="#8d84be" stroke="#8d84be" stroke-width="1.51"/><path d="M798,-63L837,53L926,-45Z" fill="#c2c0dd" stroke="#c2c0dd" stroke-width="1.51"/><path d="M908,-150L809,-107L926,-45Z" fill="#cac8e1" stroke="#cac8e1" stroke-width="1.51"/><path d="M809,-107L798,-63L926,-45Z" fill="#c9c7e1" stroke="#c9c7e1" stroke-width="1.51"/><path d="M827,183L843,252L899,164Z" fill="#9b98c8" stroke="#9b98c8" stroke-width="1.51"/><path d="M837,53L827,183L899,164Z" fill="#a7a4ce" stroke="#a7a4ce" stroke-width="1.51"/><path d="M656,-165L719,-112L809,-107Z" fill="#d4d4e8" stroke="#d4d4e8" stroke-width="1.51"/><path d="M784,306L736,446L847,464Z" fill="#846ab1" stroke="#846ab1" stroke-width="1.51"/><path d="M714,351L736,446L784,306Z" fill="#8a75b7" stroke="#8a75b7" stroke-width="1.51"/><path d="M715,83L713,159L827,183Z" fill="#aaa8d0" stroke="#aaa8d0" stroke-width="1.51"/><path d="M715,83L827,183L837,53Z" fill="#afadd3" stroke="#afadd3" stroke-width="1.51"/><path d="M798,-63L715,83L837,53Z" fill="#bebedc" stroke="#bebedc" stroke-width="1.51"/><path d="M827,183L706,251L843,252Z" fill="#9996c8" stroke="#9996c8" stroke-width="1.51"/><path d="M706,251L784,306L843,252Z" fill="#948cc3" stroke="#948cc3" stroke-width="1.51"/><path d="M690,-38L715,83L798,-63Z" fill="#c6c6e0" stroke="#c6c6e0" stroke-width="1.51"/><path d="M713,159L706,251L827,183Z" fill="#a19ecb" stroke="#a19ecb" stroke-width="1.51"/><path d="M719,-112L798,-63L809,-107Z" fill="#cfcee4" stroke="#cfcee4" stroke-width="1.51"/><path d="M719,-112L690,-38L798,-63Z" fill="#cfcde5" stroke="#cfcde5" stroke-width="1.51"/><path d="M706,251L714,351L784,306Z" fill="#9386c0" stroke="#9386c0" stroke-width="1.51"/><path d="M706,251L648,340L714,351Z" fill="#9385c0" stroke="#9385c0" stroke-width="1.51"/><path d="M690,-38L612,85L715,83Z" fill="#c0c1de" stroke="#c0c1de" stroke-width="1.51"/><path d="M714,351L647,453L736,446Z" fill="#876db3" stroke="#876db3" stroke-width="1.51"/><path d="M239,-173L411,-120L554,-154Z" fill="#e8e7f2" stroke="#e8e7f2" stroke-width="1.51"/><path d="M615,162L706,251L713,159Z" fill="#a6a4ce" stroke="#a6a4ce" stroke-width="1.51"/><path d="M612,85L615,162L713,159Z" fill="#b1b0d4" stroke="#b1b0d4" stroke-width="1.51"/><path d="M648,340L647,453L714,351Z" fill="#8d76b8" stroke="#8d76b8" stroke-width="1.51"/><path d="M612,85L713,159L715,83Z" fill="#b4b3d7" stroke="#b4b3d7" stroke-width="1.51"/><path d="M592,-75L690,-38L719,-112Z" fill="#d3d2e7" stroke="#d3d2e7" stroke-width="1.51"/><path d="M656,-165L592,-75L719,-112Z" fill="#d8d7ea" stroke="#d8d7ea" stroke-width="1.51"/><path d="M605,271L648,340L706,251Z" fill="#988ec4" stroke="#988ec4" stroke-width="1.51"/><path d="M615,162L605,271L706,251Z" fill="#a19fcc" stroke="#a19fcc" stroke-width="1.51"/><path d="M558,52L612,85L690,-38Z" fill="#c5c6e1" stroke="#c5c6e1" stroke-width="1.51"/><path d="M592,-75L558,52L690,-38Z" fill="#cecfe5" stroke="#cecfe5" stroke-width="1.51"/><path d="M545,401L443,429L647,453Z" fill="#8e72b6" stroke="#8e72b6" stroke-width="1.51"/><path d="M545,401L647,453L648,340Z" fill="#8d74b7" stroke="#8d74b7" stroke-width="1.51"/><path d="M554,-154L592,-75L656,-165Z" fill="#dcdbec" stroke="#dcdbec" stroke-width="1.51"/><path d="M605,271L537,322L648,340Z" fill="#988bc2" stroke="#988bc2" stroke-width="1.51"/><path d="M537,322L545,401L648,340Z" fill="#9481be" stroke="#9481be" stroke-width="1.51"/><path d="M527,-53L558,52L592,-75Z" fill="#d2d2e7" stroke="#d2d2e7" stroke-width="1.51"/><path d="M527,230L605,271L615,162Z" fill="#a5a3cf" stroke="#a5a3cf" stroke-width="1.51"/><path d="M612,85L532,116L615,162Z" fill="#b6b6d8" stroke="#b6b6d8" stroke-width="1.51"/><path d="M532,116L527,230L615,162Z" fill="#b0aed3" stroke="#b0aed3" stroke-width="1.51"/><path d="M558,52L532,116L612,85Z" fill="#bebfdd" stroke="#bebfdd" stroke-width="1.51"/><path d="M527,230L537,322L605,271Z" fill="#9f97c9" stroke="#9f97c9" stroke-width="1.51"/><path d="M554,-154L527,-53L592,-75Z" fill="#dbdaeb" stroke="#dbdaeb" stroke-width="1.51"/><path d="M461,168L527,230L532,116Z" fill="#b2b0d4" stroke="#b2b0d4" stroke-width="1.51"/><path d="M411,-120L527,-53L554,-154Z" fill="#e0dfed" stroke="#e0dfed" stroke-width="1.51"/><path d="M450,72L532,116L558,52Z" fill="#c2c2df" stroke="#c2c2df" stroke-width="1.51"/><path d="M527,-53L450,72L558,52Z" fill="#cdcde4" stroke="#cdcde4" stroke-width="1.51"/><path d="M527,230L458,236L537,322Z" fill="#a39ccc" stroke="#a39ccc" stroke-width="1.51"/><path d="M537,322L421,353L545,401Z" fill="#9883bf" stroke="#9883bf" stroke-width="1.51"/><path d="M411,-120L433,-55L527,-53Z" fill="#deddec" stroke="#deddec" stroke-width="1.51"/><path d="M433,-55L450,72L527,-53Z" fill="#d5d5e9" stroke="#d5d5e9" stroke-width="1.51"/><path d="M421,353L443,429L545,401Z" fill="#967cbc" stroke="#967cbc" stroke-width="1.51"/><path d="M458,236L421,353L537,322Z" fill="#a093c6" stroke="#a093c6" stroke-width="1.51"/><path d="M461,168L458,236L527,230Z" fill="#acaad2" stroke="#acaad2" stroke-width="1.51"/><path d="M450,72L461,168L532,116Z" fill="#bcbcdb" stroke="#bcbcdb" stroke-width="1.51"/><path d="M214,406L119,415L329,435Z" fill="#9d80be" stroke="#9d80be" stroke-width="1.51"/><path d="M239,-173L316,-113L411,-120Z" fill="#eae9f2" stroke="#eae9f2" stroke-width="1.51"/><path d="M433,-55L333,-62L450,72Z" fill="#d9d9eb" stroke="#d9d9eb" stroke-width="1.51"/><path d="M333,-62L304,87L450,72Z" fill="#d2d2e7" stroke="#d2d2e7" stroke-width="1.51"/><path d="M304,87L308,175L450,72Z" fill="#c4c3de" stroke="#c4c3de" stroke-width="1.51"/><path d="M317,265L421,353L458,236Z" fill="#a69ccc" stroke="#a69ccc" stroke-width="1.51"/><path d="M308,175L317,265L458,236Z" fill="#b0add3" stroke="#b0add3" stroke-width="1.51"/><path d="M308,175L458,236L461,168Z" fill="#b4b1d5" stroke="#b4b1d5" stroke-width="1.51"/><path d="M450,72L308,175L461,168Z" fill="#bdbbda" stroke="#bdbbda" stroke-width="1.51"/><path d="M317,265L346,364L421,353Z" fill="#a292c6" stroke="#a292c6" stroke-width="1.51"/><path d="M421,353L346,364L443,429Z" fill="#9b82bf" stroke="#9b82bf" stroke-width="1.51"/><path d="M346,364L329,435L443,429Z" fill="#997dbd" stroke="#997dbd" stroke-width="1.51"/><path d="M411,-120L333,-62L433,-55Z" fill="#e2e1ef" stroke="#e2e1ef" stroke-width="1.51"/><path d="M316,-113L333,-62L411,-120Z" fill="#e6e4f0" stroke="#e6e4f0" stroke-width="1.51"/><path d="M-51,-168L33,-136L239,-173Z" fill="#f4f3f8" stroke="#f4f3f8" stroke-width="1.51"/><path d="M304,87L283,135L308,175Z" fill="#c2c0dd" stroke="#c2c0dd" stroke-width="1.51"/><path d="M218,39L304,87L333,-62Z" fill="#d7d7e9" stroke="#d7d7e9" stroke-width="1.51"/><path d="M238,-77L218,39L333,-62Z" fill="#e0e0ee" stroke="#e0e0ee" stroke-width="1.51"/><path d="M317,265L279,310L346,364Z" fill="#a697c9" stroke="#a697c9" stroke-width="1.51"/><path d="M214,406L329,435L346,364Z" fill="#9c81bf" stroke="#9c81bf" stroke-width="1.51"/><path d="M279,310L214,406L346,364Z" fill="#a28cc3" stroke="#a28cc3" stroke-width="1.51"/><path d="M308,175L224,258L317,265Z" fill="#b1aed5" stroke="#b1aed5" stroke-width="1.51"/><path d="M316,-113L238,-77L333,-62Z" fill="#e6e4f0" stroke="#e6e4f0" stroke-width="1.51"/><path d="M239,-173L238,-77L316,-113Z" fill="#eae9f3" stroke="#eae9f3" stroke-width="1.51"/><path d="M224,258L279,310L317,265Z" fill="#aca2cf" stroke="#aca2cf" stroke-width="1.51"/><path d="M187,-5L218,39L238,-77Z" fill="#e0dfee" stroke="#e0dfee" stroke-width="1.51"/><path d="M283,135L224,258L308,175Z" fill="#b9b6d8" stroke="#b9b6d8" stroke-width="1.51"/><path d="M218,39L283,135L304,87Z" fill="#cccbe3" stroke="#cccbe3" stroke-width="1.51"/><path d="M218,39L119,121L283,135Z" fill="#cccbe2" stroke="#cccbe2" stroke-width="1.51"/><path d="M119,121L147,214L283,135Z" fill="#c2bfdc" stroke="#c2bfdc" stroke-width="1.51"/><path d="M147,214L224,258L283,135Z" fill="#b9b5d8" stroke="#b9b5d8" stroke-width="1.51"/><path d="M224,258L214,406L279,310Z" fill="#a796c9" stroke="#a796c9" stroke-width="1.51"/><path d="M140,34L119,121L218,39Z" fill="#d4d3e7" stroke="#d4d3e7" stroke-width="1.51"/><path d="M114,327L214,406L224,258Z" fill="#a896c9" stroke="#a896c9" stroke-width="1.51"/><path d="M115,-102L238,-77L239,-173Z" fill="#edebf4" stroke="#edebf4" stroke-width="1.51"/><path d="M33,-136L115,-102L239,-173Z" fill="#f1eff6" stroke="#f1eff6" stroke-width="1.51"/><path d="M115,-102L187,-5L238,-77Z" fill="#e7e6f1" stroke="#e7e6f1" stroke-width="1.51"/><path d="M114,327L119,415L214,406Z" fill="#a48ac3" stroke="#a48ac3" stroke-width="1.51"/><path d="M147,214L114,327L224,258Z" fill="#b2a8d2" stroke="#b2a8d2" stroke-width="1.51"/><path d="M187,-5L140,34L218,39Z" fill="#dadaeb" stroke="#dadaeb" stroke-width="1.51"/><path d="M89,275L114,327L147,214Z" fill="#b2a8d2" stroke="#b2a8d2" stroke-width="1.51"/><path d="M84,-69L140,34L187,-5Z" fill="#e3e2ef" stroke="#e3e2ef" stroke-width="1.51"/><path d="M115,-102L84,-69L187,-5Z" fill="#e9e7f2" stroke="#e9e7f2" stroke-width="1.51"/><path d="M78,397L-63,438L119,415Z" fill="#a385c1" stroke="#a385c1" stroke-width="1.51"/><path d="M114,327L78,397L119,415Z" fill="#a68cc5" stroke="#a68cc5" stroke-width="1.51"/><path d="M25,42L119,121L140,34Z" fill="#d5d5e9" stroke="#d5d5e9" stroke-width="1.51"/><path d="M84,-69L25,42L140,34Z" fill="#e1e0ef" stroke="#e1e0ef" stroke-width="1.51"/><path d="M119,121L33,163L147,214Z" fill="#c3c0dd" stroke="#c3c0dd" stroke-width="1.51"/><path d="M33,163L89,275L147,214Z" fill="#bbb7d9" stroke="#bbb7d9" stroke-width="1.51"/><path d="M89,275L53,309L114,327Z" fill="#afa0ce" stroke="#afa0ce" stroke-width="1.51"/><path d="M53,309L78,397L114,327Z" fill="#aa95c9" stroke="#aa95c9" stroke-width="1.51"/><path d="M25,42L33,163L119,121Z" fill="#cfcce4" stroke="#cfcce4" stroke-width="1.51"/><path d="M33,-136L84,-69L115,-102Z" fill="#efedf5" stroke="#efedf5" stroke-width="1.51"/><path d="M-13,186L-15,264L33,163Z" fill="#bfbbdb" stroke="#bfbbdb" stroke-width="1.51"/><path d="M-64,-34L25,42L84,-69Z" fill="#e7e6f1" stroke="#e7e6f1" stroke-width="1.51"/><path d="M-15,264L53,309L89,275Z" fill="#b3a7d1" stroke="#b3a7d1" stroke-width="1.51"/><path d="M33,163L-15,264L89,275Z" fill="#b9b5d9" stroke="#b9b5d9" stroke-width="1.51"/><path d="M53,309L-48,338L78,397Z" fill="#ab96c9" stroke="#ab96c9" stroke-width="1.51"/><path d="M33,-136L-64,-34L84,-69Z" fill="#eeecf5" stroke="#eeecf5" stroke-width="1.51"/><path d="M-48,338L-63,438L78,397Z" fill="#a78cc5" stroke="#a78cc5" stroke-width="1.51"/><path d="M-64,-34L-44,31L25,42Z" fill="#e2e1ef" stroke="#e2e1ef" stroke-width="1.51"/><path d="M25,42L-44,31L33,163Z" fill="#d6d5e8" stroke="#d6d5e8" stroke-width="1.51"/><path d="M-44,31L-13,186L33,163Z" fill="#cdcbe3" stroke="#cdcbe3" stroke-width="1.51"/><path d="M-15,264L-48,338L53,309Z" fill="#b1a2cf" stroke="#b1a2cf" stroke-width="1.51"/><path d="M-44,31L-123,129L-13,186Z" fill="#d1cee5" stroke="#d1cee5" stroke-width="1.51"/><path d="M-51,-168L-64,-34L33,-136Z" fill="#f3f1f7" stroke="#f3f1f7" stroke-width="1.51"/><path d="M-102,-61L-64,-34L-51,-168Z" fill="#f1f0f7" stroke="#f1f0f7" stroke-width="1.51"/><path d="M-124,-117L-102,-61L-51,-168Z" fill="#f4f3f9" stroke="#f4f3f9" stroke-width="1.51"/><path d="M-116,49L-123,129L-44,31Z" fill="#d9d9eb" stroke="#d9d9eb" stroke-width="1.51"/><path d="M-130,310L-48,338L-15,264Z" fill="#b2a3d0" stroke="#b2a3d0" stroke-width="1.51"/><path d="M-153,240L-15,264L-13,186Z" fill="#bcb8db" stroke="#bcb8db" stroke-width="1.51"/><path d="M-123,129L-153,240L-13,186Z" fill="#c4c1de" stroke="#c4c1de" stroke-width="1.51"/><path d="M-153,240L-130,310L-15,264Z" fill="#b7add5" stroke="#b7add5" stroke-width="1.51"/><path d="M-155,399L-63,438L-48,338Z" fill="#a98dc6" stroke="#a98dc6" stroke-width="1.51"/><path d="M-130,310L-155,399L-48,338Z" fill="#af99cb" stroke="#af99cb" stroke-width="1.51"/><path d="M-64,-34L-116,49L-44,31Z" fill="#e3e2ef" stroke="#e3e2ef" stroke-width="1.51"/><path d="M-102,-61L-116,49L-64,-34Z" fill="#e9e8f3" stroke="#e9e8f3" stroke-width="1.51"/><path d="M-124,-117L-116,49L-102,-61Z" fill="#edecf4" stroke="#edecf4" stroke-width="1.51"/><path d="M-153,240L-123,129L-116,49Z" fill="#cecbe3" stroke="#cecbe3" stroke-width="1.51"/><path d="M-124,-117L-153,240L-116,49Z" fill="#dcdced" stroke="#dcdced" stroke-width="1.51"/><path d="M-153,240L-155,399L-130,310Z" fill="#b3a2cf" stroke="#b3a2cf" stroke-width="1.51"/></svg>